# xmcd
#
# Track frame offsets: 
#        150
#        16362
#        33047
#
# Disc length: 657 seconds
#
# Revision: 0
# Processed by: cddbd v1.5.2PL0 Copyright (c) Steve Scherf et al.
# Submitted via: ExactAudioCopy v1.3
#
DISCID=15028f03
DTITLE=Karen O'Shea - My Love Goes That Far
DYEAR=2001
DGENRE=Country
TTITLE0=My Love Goes That Far
TTITLE1=She Broke Your Heart
TTITLE2=She Didn't Mean To
EXTD=
EXTT0=
EXTT1=
EXTT2=
PLAYORDER=
